<?xml version="1.0" standalone="no"?>
<!DOCTYPE svg PUBLIC "-//W3C//DTD SVG 20010904//EN"
 "http://www.w3.org/TR/2001/REC-SVG-20010904/DTD/svg10.dtd">
<svg version="1.0" xmlns="http://www.w3.org/2000/svg"
 width="700.000000pt" height="700.000000pt" viewBox="0 0 700.000000 700.000000"
 preserveAspectRatio="xMidYMid meet">
<metadata>
Created by potrace 1.11, written by Peter Selinger 2001-2013
</metadata>
<g transform="translate(0.000000,700.000000) scale(0.100000,-0.100000)"
fill="#000000" stroke="none">
<path d="M0 6108 l0 -863 402 0 403 0 2 -1773 c1 -1361 -1 -1772 -10 -1773 -7
-1 -187 -2 -402 -3 l-390 -1 -3 -847 -2 -848 835 0 835 0 0 415 0 415 63 1
c58 0 3126 0 3375 -1 l112 0 0 -415 0 -415 863 0 862 0 0 848 0 847 -430 0
-430 0 0 1775 0 1775 428 0 c277 0 427 4 428 10 1 6 2 394 3 863 l1 852 -862
0 -863 0 0 -430 c0 -403 -1 -430 -17 -430 -22 -1 -3480 -1 -3510 0 l-23 0 0
430 0 430 -835 0 -835 0 0 -862z"/>
</g>
</svg>
